<svg xmlns="http://www.w3.org/2000/svg" viewBox="0 0 512 512">
  <rect width="512" height="512" rx="112" fill="#e84d73"/>
  <path fill="#ffffff" d="M256 391c-12-12-36-31-63-54-52-44-102-86-102-148 0-48 37-84 85-84 31 0 61 18 80 47 19-29 49-47 80-47 48 0 85 36 85 84 0 62-50 104-102 148-27 23-51 42-63 54Z"/>
  <path fill="#2563eb" d="M157 173c14-23 42-33 67-22-13 11-24 25-31 42-12-12-25-18-36-20Z"/>
  <path fill="#10b981" d="M355 173c-14-23-42-33-67-22 13 11 24 25 31 42 12-12 25-18 36-20Z"/>
</svg>
